<?xml version="1.0" encoding="utf-8"?>
<!-- Generator: Adobe Illustrator 26.0.3, SVG Export Plug-In . SVG Version: 6.00 Build 0)  -->
<svg version="1.1" id="New_Shield" xmlns="http://www.w3.org/2000/svg" xmlns:xlink="http://www.w3.org/1999/xlink" x="0px" y="0px" viewBox="0 0 401.1 395.68" style="enable-background:new 0 0 401.1 395.68;" xml:space="preserve">
	<style type="text/css">
		<![CDATA[.lead-color{fill: var(--svg-lead-color, #fff);}
		]]>
	</style>
	<polygon fill="#00467f" points="321.07,363.82 31.78,363.82 31.78,80.38 80.25,31.82 369.64,31.82 369.64,315.27 " />
	<polygon fill="#ffffff" points="177.51,209.01 177.51,205.24 164.98,205.24 164.98,228.99 177.79,229 177.79,225.22 168.75,225.22 
	168.75,218.9 177.21,218.9 177.21,215.11 168.75,215.11 168.75,209.01 " />
	<path fill="#ffffff" d="M90.44,229.3c3.1,0,5.52-0.91,7.19-2.69c1.56-1.67,2.39-4.11,2.39-7.04v-14.33h-3.79V219
	c0,2.42-0.35,3.8-1.19,4.74c-0.58,0.64-1.93,1.71-4.54,1.71c-1.68,0-3.04-0.59-4.15-1.81c-0.87-0.98-1.13-2.01-1.13-4.44v-13.96
	l-3.78-0.01v14.67c0,3,0.97,5.47,2.79,7.14C85.83,228.5,88.03,229.3,90.44,229.3z" />
	<path fill="#ffffff" d="M125.4,228.99v-23.76h-3.61c0,0,0,16.45,0,16.99c-0.33-0.42-13.38-16.99-13.38-16.99h-2.96v23.76h3.6
	c0,0,0-16.35,0-16.88c0.34,0.43,13.2,16.88,13.2,16.88H125.4z" />
	<path fill="#ffffff" d="M159.55,205.24h-3.81c0,0-5.73,14.93-5.9,15.38c-0.17-0.45-5.92-15.38-5.92-15.38h-3.84l9.25,23.96l1.17,0.01
	L159.55,205.24z" />
	<path fill="#ffffff" d="M195.54,228.99h4.53l-0.62-0.95c-1.25-1.91-1.77-2.7-2.59-4.19c-0.72-1.31-1.46-2.67-2.21-3.77
	c-0.67-0.97-1.3-1.71-2-2.31c2-1.13,3.11-3.15,3.11-5.7c0-2.06-0.68-3.79-1.96-5c-1.27-1.2-3.08-1.84-5.23-1.84h-5.62V229l3.79-0.01
	c0,0,0-9.77,0-9.96c0.15,0,0.83,0,0.83,0c1.29,0,2.42,0.36,5.13,5.05L195.54,228.99z M191.89,212.03c0,0.99-0.27,1.76-0.8,2.31
	c-0.6,0.61-1.57,0.93-2.85,0.93c0,0-1.33,0-1.5,0c0-0.19,0-6.2,0-6.39c0.17,0,1.5,0,1.5,0c2.47,0,3.62,0.97,3.65,3.07
	C191.89,211.98,191.89,212,191.89,212.03z" />
	<path fill="#ffffff" d="M210.43,209.01c1.59,0,3.12,0.76,4.54,2.26l0.54,0.57l0.17,0.17v-4.96l-0.05-0.03l-0.12-0.1
	c-1.5-1.11-3.17-1.69-4.85-1.69c-1.97,0-3.64,0.62-4.83,1.78c-1.2,1.17-1.83,2.81-1.83,4.75c0,3.29,2.29,5.11,4.64,6.7l0.57,0.39
	l1.05,0.73c0.61,0.44,1.03,0.78,1.38,1.13c0.87,0.84,1.28,1.68,1.28,2.63c0,0.96-0.81,2.49-2.96,2.49c-1.86,0-3.68-1.12-5.11-3.16
	l-0.57-0.81l-0.18-0.26l0.12,5.75l0.03,0.03c1.81,1.51,3.72,2.22,6.04,2.22c1.73,0,3.31-0.68,4.45-1.9
	c1.12-1.21,1.75-2.89,1.75-4.74c0-3.9-2.41-5.78-4.66-7.25l-1.64-1.03c-0.59-0.38-1.03-0.71-1.38-1.01
	c-0.88-0.76-1.26-1.48-1.26-2.35C207.57,209.96,208.75,209.01,210.43,209.01z" />
	<path fill="#ffffff" d="M260.7,229h3.78c0,0,0-12.33,0-12.4c0.04-0.05,8.05-11.37,8.05-11.37h-4.58c0,0-5.24,7.38-5.38,7.6
	c-0.15-0.22-5.33-7.6-5.33-7.6l-4.58-0.01c0,0,8.01,11.28,8.05,11.34C260.7,216.63,260.7,229,260.7,229z" />
	<rect x="130.86" y="205.24" fill="#ffffff" width="3.78" height="23.76" />
	<rect x="221.93" y="205.24" fill="#ffffff" width="3.79" height="23.76" />
	<polygon fill="#ffffff" points="238.21,228.99 241.99,228.99 241.99,209.01 249.13,209.01 249.13,205.24 231.06,205.24 231.06,209.01 
	238.21,209.01 " />
	<polygon fill="#ffffff" points="313.24,218.17 321.19,218.17 321.19,214.45 313.24,214.45 313.24,208.96 321.19,208.96 321.19,205.24 
	309.5,205.24 309.5,228.71 313.24,228.71 " />
	<path fill="#ffffff" d="M292.62,229.31c3.39,0,6.3-1.27,8.41-3.66c1.95-2.21,3.03-5.18,3.03-8.38c0-3.25-1.09-6.25-3.07-8.45
	c-2.1-2.34-4.98-3.58-8.31-3.58c-3.24,0-6.16,1.28-8.25,3.6c-2,2.22-3.09,5.22-3.09,8.44c0,3.19,1.08,6.16,3.04,8.39
	C286.45,228.01,289.38,229.31,292.62,229.31z M287.32,211.36c1.38-1.5,3.28-2.32,5.37-2.32c4.38,0,7.55,3.46,7.55,8.24
	c0,2.3-0.76,4.4-2.15,5.91c-1.38,1.51-3.3,2.33-5.39,2.33c-2.08,0-3.99-0.82-5.37-2.33c-1.39-1.51-2.15-3.61-2.15-5.91
	C285.17,214.97,285.93,212.87,287.32,211.36z" />
	<path fill="#ffffff" d="M243.84,236.42h-3.49l-12.09,31.44h5.14c0,0,3.36-8.74,3.42-8.89c0.18,0,10.66,0,10.83,0
	c0.06,0.15,3.61,8.89,3.61,8.89h5.15L243.84,236.42z M238.74,254c0.12-0.32,3.1-8.34,3.31-8.91c0.24,0.57,3.45,8.58,3.57,8.91
	C245.28,254,239.09,254,238.74,254z" />
	<polygon fill="#ffffff" points="223.14,262.88 210.86,262.88 210.86,236.6 205.88,236.6 205.88,267.85 223.14,267.85 " />
	<path fill="#ffffff" d="M89.69,258.96c0.18,0,10.66,0,10.83,0c0.06,0.15,3.63,8.89,3.63,8.89h5.14l-12.57-31.44h-3.49l-12.09,31.44
	h5.15C86.27,267.85,89.63,259.11,89.69,258.96z M94.93,245.08c0.22,0.57,3.43,8.58,3.56,8.91c-0.34,0-6.54,0-6.87,0
	C91.73,253.67,94.71,245.65,94.93,245.08z" />
	<path fill="#ffffff" d="M170.66,265.37v-6.09l-0.21,0.14l-0.65,0.46c-2.95,2.14-6.2,3.31-9.16,3.31c-3.05,0-5.66-1.04-7.56-3.02
	c-1.9-1.97-2.89-4.71-2.89-7.9c0-3.08,1.04-5.88,2.94-7.9c1.89-2.01,4.5-3.12,7.35-3.12c3.02,0,5.82,0.95,9.08,3.05l0.63,0.41
	l0.21,0.13l-0.24-6.09l-0.08-0.03c-3.81-1.78-6.67-2.54-9.55-2.54c-8.93,0-15.43,6.93-15.43,16.48c0,3.58,1.35,7.41,3.62,10.23
	c1.97,2.44,5.56,5.35,11.57,5.35c4.76,0,7.77-1.37,10.31-2.85L170.66,265.37z" />
	<path fill="#ffffff" d="M186.08,251.4c0.14-0.17,12.26-14.81,12.26-14.81h-6.27c0,0-10.2,12.33-10.62,12.85c0-0.67,0-12.85,0-12.85
	h-4.98v31.25h4.98c0,0,0-13.46,0-14.09c0.42,0.46,13.05,14.09,13.05,14.09h6.83C201.32,267.85,186.22,251.56,186.08,251.4z" />
	<path fill="#ffffff" d="M318.43,241.67c-2.71-3.32-6.65-5.07-11.4-5.07h-11.1v31.25h11.14c4.38,0,8.17-1.67,10.97-4.82
	c2.52-2.86,3.98-6.8,3.98-10.81C322.02,248.31,320.71,244.45,318.43,241.67z M306.59,262.88c0,0-5.43,0-5.68,0
	c0-0.25,0-21.07,0-21.32c0.24,0,5.48,0,5.48,0c3.38,0,6.14,1.1,7.98,3.15c1.67,1.87,2.56,4.46,2.56,7.51
	C316.93,256.18,314.74,262.88,306.59,262.88z" />
	<path fill="#ffffff" d="M126.69,268.26c4.09,0,7.26-1.19,9.46-3.53c2.06-2.2,3.14-5.4,3.14-9.27V236.6h-4.98v18.1
	c0,3.18-0.46,4.99-1.58,6.23c-0.76,0.83-2.54,2.25-5.97,2.25c-2.22,0-4.01-0.77-5.46-2.38c-1.14-1.28-1.49-2.64-1.49-5.84V236.6
	l-4.97-0.01v19.31c0,3.95,1.27,7.19,3.68,9.39C120.62,267.2,123.52,268.26,126.69,268.26z" />
	<path fill="#ffffff" d="M283.04,258.96c-0.44-0.56-17.6-22.35-17.6-22.35l-3.91-0.01v31.25h4.73c0,0,0-21.5,0-22.21
	c0.44,0.57,17.38,22.21,17.38,22.21h4.14V236.6h-4.75C283.04,236.6,283.04,258.25,283.04,258.96z" />
	<rect x="81.31" y="305.94" fill="#ffffff" width="240.45" height="1.4" />
	<g>
		<path fill="#00467f" d="M201.54,190.27c-18.32-7.67-31.82-19.5-40.12-35.18c-5.98-11.29-7.56-21.82-7.56-25.8V81.05h95.6v48.24
		c0,11.41-8.56,44.62-47.65,60.98l-0.14,0.06L201.54,190.27z" />
		<g>
			<polygon fill="#ffffff" points="177.37,130.66 183.04,126.37 188.72,130.66 186.54,123.82 192.52,119.51 185.24,119.51 
			183.04,112.63 180.85,119.51 173.57,119.51 179.54,123.82 		" />
			<polygon fill="#ffffff" points="214.58,130.6 220.26,126.32 225.93,130.6 223.76,123.76 229.73,119.46 222.45,119.46 220.26,112.57 
			218.06,119.46 210.78,119.46 216.76,123.76 		" />
			<polygon fill="#ffffff" points="203.85,173.2 201.66,166.32 199.47,173.2 192.18,173.2 198.16,177.51 195.99,184.35 201.66,180.07 
			207.33,184.35 205.16,177.51 211.13,173.2 		" />
			<path fill="#ffffff" d="M232.94,155.75c-0.36,0-0.7,0.16-0.92,0.43l-0.15,0.18h-1.9v-2.31h1.89l0.15,0.18
			c0.22,0.27,0.56,0.42,0.92,0.42c0.64,0,1.16-0.48,1.16-1.08c0-0.59-0.52-1.08-1.16-1.08c-0.37,0-0.7,0.15-0.92,0.43l-0.15,0.18
			h-1.89v-2.31h1.88l0.15,0.18c0.22,0.27,0.56,0.42,0.92,0.42c0.64,0,1.16-0.48,1.16-1.08c0-0.6-0.52-1.08-1.16-1.08
			c-0.36,0-0.7,0.16-0.93,0.43l-0.15,0.18h-1.88v-2.31h1.88l0.15,0.18c0.22,0.27,0.56,0.42,0.92,0.42c0.64,0,1.16-0.48,1.16-1.08
			c0-0.59-0.52-1.08-1.16-1.08c-0.36,0-0.7,0.16-0.93,0.43l-0.15,0.18h-1.88v-2.31h1.87l0.15,0.18c0.22,0.26,0.56,0.42,0.92,0.42
			c0.64,0,1.16-0.49,1.16-1.08c0-0.59-0.52-1.08-1.16-1.08c-0.36,0-0.7,0.15-0.92,0.42l-0.15,0.18h-1.87V141h1.86l0.15,0.18
			c0.23,0.27,0.56,0.42,0.93,0.42c0.64,0,1.16-0.48,1.16-1.08c0-0.6-0.52-1.08-1.16-1.08c-0.36,0-0.7,0.16-0.93,0.43l-0.15,0.18
			h-1.86v-2.31h1.86l0.15,0.18c0.23,0.27,0.57,0.42,0.93,0.42c0.64,0,1.16-0.48,1.16-1.08c0-0.59-0.52-1.08-1.16-1.08
			c-0.37,0-0.7,0.16-0.93,0.43l-0.15,0.18l-1.47,0.01l-1.58-0.8l0,20.93l-0.28,0.45c-4.73,2.34-8.95,2.6-12.56,0.78
			c-4.07-2.06-9.88-2.54-13.35,2.5h1.63c0.28,0,0.5,0.22,0.5,0.5c0,0.28-0.22,0.5-0.5,0.5h-5.09c-0.28,0-0.5-0.22-0.5-0.5
			c0-0.28,0.22-0.5,0.5-0.5h1.62c-3.41-4.96-9.21-4.85-13.33-2.51c-3.91,2.21-8.28,1.94-12.62-0.8l-0.23-0.42v-20.93l-1.58,0.8
			l-1.48-0.01l-0.15-0.18c-0.22-0.27-0.56-0.42-0.93-0.42c-0.64,0-1.16,0.48-1.16,1.08c0,0.59,0.52,1.08,1.16,1.08
			c0.36,0,0.7-0.15,0.92-0.42l0.15-0.18h1.86v2.31h-1.86l-0.15-0.18c-0.22-0.27-0.56-0.43-0.93-0.43c-0.64,0-1.16,0.48-1.16,1.08
			c0,0.59,0.52,1.08,1.16,1.08c0.36,0,0.7-0.15,0.92-0.42l0.15-0.18h1.86v2.31h-1.87l-0.15-0.18c-0.23-0.27-0.56-0.43-0.93-0.43
			c-0.64,0-1.17,0.48-1.17,1.08c0,0.6,0.52,1.08,1.17,1.08c0.36,0,0.7-0.15,0.92-0.42l0.15-0.18h1.87v2.31h-1.88l-0.15-0.18
			c-0.22-0.27-0.56-0.43-0.92-0.43c-0.64,0-1.17,0.48-1.17,1.08c0,0.6,0.52,1.08,1.17,1.08c0.36,0,0.69-0.15,0.92-0.42l0.15-0.18
			h1.88v2.31h-1.88l-0.15-0.18c-0.23-0.28-0.56-0.43-0.92-0.43c-0.64,0-1.16,0.48-1.16,1.08c0,0.59,0.52,1.08,1.16,1.08
			c0.36,0,0.7-0.15,0.92-0.42l0.15-0.18h1.89v2.31h-1.89l-0.15-0.18c-0.22-0.27-0.56-0.43-0.92-0.43c-0.64,0-1.17,0.48-1.17,1.08
			c0,0.6,0.52,1.08,1.17,1.08c0.36,0,0.7-0.15,0.92-0.42l0.15-0.18h1.89v2.31h-1.9l-0.15-0.18c-0.22-0.27-0.56-0.43-0.92-0.43
			c-0.64,0-1.17,0.48-1.17,1.08s0.52,1.08,1.17,1.08c0.36,0,0.7-0.15,0.92-0.42l0.15-0.18h1.59l0.14,0.12
			c2.5,2.16,5.25,3.16,8.66,3.16c2.7,0,4.26-0.4,5.97-1.54c1.56-1.03,3.3-1.54,5.03-1.54c1.73,0,3.46,0.51,4.99,1.54l0.69,0.47
			l-0.74,0.39c-0.48,0.25-0.77,0.75-0.77,1.3c0,0.81,0.66,1.47,1.47,1.47h6.34c0.81,0,1.47-0.66,1.47-1.47c0-0.55-0.3-1.05-0.77-1.3
			l-0.74-0.39l0.7-0.47c3.06-2.06,6.9-2.06,10.02,0c1.72,1.13,3.28,1.54,5.98,1.54c3.41,0,6.17-1.01,8.66-3.16l0.14-0.12h1.58
			l0.15,0.17c0.23,0.27,0.57,0.42,0.92,0.42c0.64,0,1.17-0.48,1.17-1.08S233.58,155.75,232.94,155.75z" />
			<path fill="#ffffff" d="M175.56,135.49v21.16c3.93,2.39,7.86,2.61,11.36,0.63c4.37-2.47,10.45-2.66,14.25,2.26v-1.57
			c-3.08-2.99-8.45-4.76-13.66-2.05c-4.75,2.47-7.39,2-10.62,0.3l-0.27-0.14v-21.11L175.56,135.49z" />
			<path fill="#ffffff" d="M216.39,157.26c3.24,1.64,7.06,1.42,11.38-0.65l0-21.12l-1.06-0.53v21.11l-0.27,0.14
			c-3.22,1.71-5.87,2.17-10.61-0.3c-5.21-2.71-10.58-0.94-13.66,2.05v1.57C206.02,154.55,212.1,155.09,216.39,157.26z" />
			<path fill="#ffffff" d="M177.75,134.39l-0.13,0.07v21c2.86,1.47,5.17,1.77,9.42-0.44c1.95-1.02,3.93-1.45,5.82-1.45
			c3.21,0,6.15,1.25,8.31,3.05v-21.44c-4.46-3.05-8.96-3.65-13.39-1.78C184.11,134.95,181.37,135.22,177.75,134.39z" />
			<path fill="#ffffff" d="M216.29,155.02c4.25,2.21,6.55,1.91,9.41,0.44v-21l-0.13-0.07c-3.62,0.84-6.36,0.56-10.02-0.99
			c-4.44-1.87-8.94-1.28-13.39,1.78v21.44C205.58,153.77,211,152.27,216.29,155.02z" />
			<path fill="#ffffff" d="M225.26,92.91c0.22,0.17,1.46,3.4,4.32,3.58c0.32,0.24,1.75,2.63,4.3,2.39c0.03,0.27,0.02,2.57,0.47,3.32
			l0.1,0.14c-0.01-0.07,0.02-0.01,0.02-0.01c0.2-0.23,1.64-1.27,2.83-1.66c0,0,0.51-1.58,0.86-1.99c2.47-0.57,3.75-2.52,3.82-4.41
			c0.05-2.63-2.31-5.47-4.94-5.13c0,0-0.09,0-0.01-0.07c0.08-0.21,0.84-0.54,1.33-0.57c-2.18-0.87-3.61,0.19-3.56,0.07l-0.02-0.07
			c0,0,0.3-0.5,1.01-0.99c-2.02,0-3.05,1.08-3.05,1.08l-0.01-0.15c0,0,0.13-0.41,0.78-1.03c-2.28,0.07-4.06,2.96-4.06,2.96
			s-0.4-2.07-2.39-2.07c-1.45-0.22-4.7,1.77-3.45,4.46c-0.58,1.08-2.49,2.74-4.11,6.11c-0.03,0.07,0.03,0.05,0,0.12
			C220.98,96.9,223.1,94.22,225.26,92.91z M224.81,91.05c0.34,0,0.61,0.27,0.61,0.61c0,0.33-0.27,0.61-0.61,0.61
			c-0.33,0-0.6-0.27-0.6-0.61C224.21,91.32,224.48,91.05,224.81,91.05z" />
			<path fill="#ffffff" d="M194.67,92.91c0.22,0.17,1.47,3.4,4.33,3.58c0.32,0.24,1.75,2.63,4.29,2.39c0.03,0.27,0.03,2.57,0.47,3.32
			l0.11,0.14c-0.01-0.07,0.02-0.01,0.02-0.01c0.2-0.23,1.64-1.27,2.83-1.66c0,0,0.51-1.58,0.86-1.99c2.48-0.57,3.74-2.52,3.83-4.41
			c0.05-2.63-2.31-5.47-4.94-5.13c0,0-0.08,0-0.01-0.07c0.09-0.21,0.85-0.54,1.33-0.57c-2.18-0.87-3.6,0.19-3.56,0.07l-0.02-0.07
			c0,0,0.29-0.5,1.01-0.99c-2.02,0-3.04,1.08-3.04,1.08l-0.01-0.15c0,0,0.14-0.41,0.78-1.03c-2.28,0.07-4.06,2.96-4.06,2.96
			s-0.39-2.07-2.38-2.07c-1.45-0.22-4.7,1.77-3.45,4.46c-0.58,1.08-2.48,2.74-4.11,6.11c-0.04,0.07,0.03,0.05,0,0.12
			C190.39,96.9,192.52,94.22,194.67,92.91z M194.23,91.05c0.33,0,0.6,0.27,0.6,0.61c0,0.33-0.27,0.61-0.6,0.61
			c-0.34,0-0.61-0.27-0.61-0.61C193.62,91.32,193.89,91.05,194.23,91.05z" />
			<path fill="#ffffff" d="M153.16,80.34v48.95c0,4.05,1.6,14.72,7.64,26.13c8.38,15.82,21.99,27.77,40.47,35.5l0.41,0.17l0.41-0.17
			c39.45-16.51,48.09-50.09,48.09-61.63V80.34H153.16z M218.22,99.68c0.72-1.97,2.44-4.68,4.31-7.09c-0.71-4.06,3.03-5.4,4.48-5.35
			c1.5,0.03,2.56,1.01,2.74,1.31c1.73-2.03,3.98-2.24,5-2.29c7.3-0.23,10.99,5.23,10.83,9.6c-0.18,4.98-3.96,6.14-4.47,6.29
			c0,0-0.06,1.08,0.78,2.54c0.05,0.11,0.22,0.23,0.06,0.51c-0.02,0.06-0.17,0.33-0.21,0.38c-0.03,0.05-0.1,0.2-0.05,0.39
			c0.09,0.32-0.03,0.71-0.27,1.16c-0.18,0.4,0.03,1.41,0.13,2.1c0.02,0.14-0.08,0.15-0.17,0.05c-0.46-0.3-0.82-1.23-0.93-1.75
			c-0.89,0.23-1.91,1.53-2.26,2.29c-0.04,0.11-0.22,0.22-0.25-0.02c-0.02-0.06-0.19-1.52,1.22-2.59c-0.72-0.23-1.46,0.12-1.97,0.4
			c-0.03,0.04-0.25,0.13-0.09-0.1c0.04-0.05,0.44-0.98,2.34-1.25c0.02-0.07,0.42-0.69,0.58-1.17c-0.04-0.71-0.41-1.6-0.86-2.43
			c-0.07,0-1.42,0.12-2.37,0.85c-0.06,0.04-0.19,0.16-0.19,0.35c0,0.19,0,0.41,0,0.41c0.02,0.06-0.07,0.43-0.55,0.59
			c-0.04,0.04-1.64,0.55-2.41,0.91c-0.04,0.03-0.72,0.33-1.22,1.04c-0.11,0.11-0.51,0.74-1.09,0.93c-0.15,0.03-0.46,0.18-0.68,0.4
			c-0.22,0.23-0.43,0.45-0.62,0.57c-0.19,0.12-0.62,0.59-0.93,1.23c-0.05,0.09-0.14,0.21-0.14,0c-0.02-0.26,0.01-0.6,0.01-0.6
			c0.18-0.81,0.55-1.22,0.87-1.57c-0.13-0.04-0.11-0.01-0.24-0.08c-0.58,0.07-2.41-0.09-3.51,0.44c-0.08,0.04-0.16,0.03-0.08-0.09
			c0.2-0.28,0.61-1.34,3.08-1.39c0.04-0.23-1.1-0.79-1.68-0.79c-0.17,0-0.07-0.1,0-0.13c0.13-0.06,1.22-0.53,2.5,0.31
			c0.06-0.04,0.93-0.35,1.42-0.39c0.59-0.44,1.92-1.77,2.45-1.97c-0.01-0.08-0.05-0.36,0.02-0.65l-0.07-0.02
			c-0.69-0.98-0.8-2.41-0.77-3.21c-1.42-0.13-2.93-1.4-3.73-2.42c-1.03-0.07-3.07-0.94-4.17-3.15c-3.72,2.68-6.14,7.44-6.28,7.66
			c-0.09,0.07-0.14,0.07-0.21,0.02C218.17,101.16,218.09,100.03,218.22,99.68z M187.63,99.68c0.72-1.97,2.44-4.68,4.31-7.09
			c-0.7-4.06,3.03-5.4,4.48-5.35c1.5,0.03,2.56,1.01,2.74,1.31c1.72-2.03,3.97-2.24,5-2.29c7.29-0.23,10.99,5.23,10.82,9.6
			c-0.18,4.98-3.96,6.14-4.47,6.29c0,0-0.06,1.08,0.78,2.54c0.05,0.11,0.22,0.23,0.06,0.51c-0.02,0.06-0.17,0.33-0.21,0.38
			c-0.04,0.05-0.1,0.2-0.05,0.39c0.09,0.32-0.03,0.71-0.27,1.16c-0.19,0.4,0.03,1.41,0.13,2.1c0.02,0.14-0.08,0.15-0.17,0.05
			c-0.46-0.3-0.82-1.23-0.93-1.75c-0.89,0.23-1.91,1.53-2.26,2.29c-0.03,0.11-0.22,0.22-0.26-0.02c-0.01-0.06-0.19-1.52,1.23-2.59
			c-0.72-0.23-1.46,0.12-1.97,0.4c-0.04,0.04-0.25,0.13-0.09-0.1c0.03-0.05,0.44-0.98,2.33-1.25c0.02-0.07,0.42-0.69,0.59-1.17
			c-0.05-0.71-0.42-1.6-0.86-2.43c-0.07,0-1.42,0.12-2.37,0.85c-0.06,0.04-0.18,0.16-0.18,0.35c0,0.19,0,0.41,0,0.41
			c0.02,0.06-0.07,0.43-0.56,0.59c-0.05,0.04-1.64,0.55-2.4,0.91c-0.04,0.03-0.73,0.33-1.23,1.04c-0.11,0.11-0.51,0.74-1.09,0.93
			c-0.15,0.03-0.46,0.18-0.68,0.4c-0.22,0.23-0.43,0.45-0.62,0.57c-0.19,0.12-0.62,0.59-0.93,1.23c-0.05,0.09-0.14,0.21-0.14,0
			c-0.02-0.26,0.01-0.6,0-0.6c0.19-0.81,0.56-1.22,0.87-1.57c-0.13-0.04-0.11-0.01-0.24-0.08c-0.58,0.07-2.41-0.09-3.51,0.44
			c-0.08,0.04-0.16,0.03-0.08-0.09c0.21-0.28,0.61-1.34,3.08-1.39c0.03-0.23-1.1-0.79-1.67-0.79c-0.18,0-0.08-0.1,0-0.13
			c0.13-0.06,1.21-0.53,2.5,0.31c0.06-0.04,0.92-0.35,1.41-0.39c0.6-0.44,1.92-1.77,2.45-1.97c0-0.08-0.05-0.36,0.02-0.65
			l-0.07-0.02c-0.68-0.98-0.8-2.41-0.77-3.21c-1.41-0.13-2.93-1.4-3.73-2.42c-1.03-0.07-3.07-0.94-4.16-3.15
			c-3.72,2.68-6.15,7.44-6.29,7.66c-0.08,0.07-0.13,0.07-0.2,0.02C187.59,101.16,187.5,100.03,187.63,99.68z M156.86,99.68
			c0.72-1.97,2.44-4.68,4.31-7.09c-0.71-4.06,3.03-5.4,4.48-5.35c1.51,0.03,2.56,1.01,2.75,1.31c1.72-2.03,3.97-2.24,5-2.29
			c7.29-0.23,10.99,5.23,10.83,9.6c-0.19,4.98-3.96,6.14-4.47,6.29c0,0-0.06,1.08,0.78,2.54c0.05,0.11,0.22,0.23,0.06,0.51
			c-0.03,0.06-0.17,0.33-0.21,0.38c-0.03,0.05-0.1,0.2-0.04,0.39c0.09,0.32-0.03,0.71-0.27,1.16c-0.18,0.4,0.03,1.41,0.13,2.1
			c0.02,0.14-0.08,0.15-0.17,0.05c-0.47-0.3-0.82-1.23-0.94-1.75c-0.88,0.23-1.9,1.53-2.25,2.29c-0.03,0.11-0.22,0.22-0.25-0.02
			c-0.01-0.06-0.19-1.52,1.22-2.59c-0.72-0.23-1.46,0.12-1.97,0.4c-0.04,0.04-0.25,0.13-0.09-0.1c0.03-0.05,0.44-0.98,2.33-1.25
			c0.02-0.07,0.42-0.69,0.59-1.17c-0.05-0.71-0.42-1.6-0.87-2.43c-0.07,0-1.42,0.12-2.37,0.85c-0.06,0.04-0.18,0.16-0.18,0.35
			c0,0.19,0,0.41,0,0.41c0.01,0.06-0.07,0.43-0.56,0.59c-0.04,0.04-1.64,0.55-2.4,0.91c-0.04,0.03-0.72,0.33-1.23,1.04
			c-0.11,0.11-0.51,0.74-1.09,0.93c-0.14,0.03-0.46,0.18-0.68,0.4c-0.23,0.23-0.43,0.45-0.62,0.57c-0.19,0.12-0.62,0.59-0.93,1.23
			c-0.05,0.09-0.14,0.21-0.15,0c-0.02-0.26,0.02-0.6,0.01-0.6c0.18-0.81,0.55-1.22,0.87-1.57c-0.12-0.04-0.11-0.01-0.24-0.08
			c-0.59,0.07-2.41-0.09-3.51,0.44c-0.08,0.04-0.17,0.03-0.08-0.09c0.2-0.28,0.61-1.34,3.08-1.39c0.03-0.23-1.1-0.79-1.68-0.79
			c-0.18,0-0.07-0.1,0-0.13c0.13-0.06,1.21-0.53,2.5,0.31c0.05-0.04,0.92-0.35,1.42-0.39c0.59-0.44,1.91-1.77,2.45-1.97
			c-0.01-0.08-0.05-0.36,0.01-0.65l-0.06-0.02c-0.69-0.98-0.8-2.41-0.77-3.21c-1.41-0.13-2.93-1.4-3.74-2.42
			c-1.02-0.07-3.07-0.94-4.16-3.15c-3.72,2.68-6.14,7.44-6.28,7.66c-0.09,0.07-0.14,0.07-0.2,0.02
			C156.8,101.16,156.72,100.03,156.86,99.68z M248.05,129.29c0,11.11-8.35,43.38-46.37,59.5c-17.8-7.54-30.92-19.1-39-34.36
			c-5.85-11.05-7.39-21.27-7.39-25.14v-19.87c0.02,0,0.04,0,0.05,0c2.68,0,5.32,0.69,7.65,1.99l0,0l0.31,0.16
			c4.52,2.67,10.45,2.67,14.95,0.01l0.22-0.13l0.02,0.01c4.77-2.7,10.97-2.65,15.7,0.14l0.08,0.06c4.5,2.62,10.4,2.59,14.88-0.05
			l0.14-0.07c4.78-2.77,11.05-2.73,15.8,0.08c4.56,2.68,10.47,2.66,14.98,0c2.41-1.42,5.16-2.15,7.99-2.15V129.29z" />
			<path fill="#ffffff" d="M163.9,92.91c0.22,0.17,1.46,3.4,4.32,3.58c0.32,0.24,1.75,2.63,4.29,2.39c0.03,0.27,0.03,2.57,0.46,3.32
			l0.11,0.14c-0.01-0.07,0.02-0.01,0.02-0.01c0.2-0.23,1.64-1.27,2.83-1.66c0,0,0.51-1.58,0.86-1.99c2.47-0.57,3.75-2.52,3.82-4.41
			c0.05-2.63-2.3-5.47-4.94-5.13c0,0-0.09,0-0.01-0.07c0.08-0.21,0.84-0.54,1.33-0.57c-2.18-0.87-3.6,0.19-3.56,0.07l-0.02-0.07
			c0,0,0.3-0.5,1.01-0.99c-2.02,0-3.05,1.08-3.05,1.08l-0.01-0.15c0,0,0.14-0.41,0.78-1.03c-2.28,0.07-4.06,2.96-4.06,2.96
			s-0.4-2.07-2.38-2.07c-1.45-0.22-4.7,1.77-3.45,4.46c-0.58,1.08-2.48,2.74-4.11,6.11c-0.04,0.07,0.04,0.05,0,0.12
			C159.62,96.9,161.74,94.22,163.9,92.91z M163.45,91.05c0.33,0,0.61,0.27,0.61,0.61c0,0.33-0.27,0.61-0.61,0.61
			c-0.33,0-0.6-0.27-0.6-0.61C162.85,91.32,163.11,91.05,163.45,91.05z" />
		</g>
	</g>
	<g>
		<path fill="#ffffff" d="M106.25,275.31h2.68l-7.59,18.86h-0.59l-6.14-15.27l-6.2,15.27h-0.58l-7.57-18.86h2.71l5.18,12.95l5.21-12.95
		h2.54l5.24,12.95L106.25,275.31z" />
		<path fill="#ffffff" d="M116.8,286.66v5.26c0,0.42,0.14,0.63,0.43,0.63c0.29,0,0.76-0.22,1.38-0.66v1.49c-0.56,0.36-1,0.6-1.34,0.73
		c-0.34,0.13-0.69,0.19-1.06,0.19c-1.05,0-1.67-0.41-1.86-1.24c-1.04,0.81-2.15,1.21-3.32,1.21c-0.86,0-1.58-0.28-2.15-0.85
		c-0.57-0.57-0.86-1.28-0.86-2.14c0-0.78,0.28-1.48,0.84-2.09c0.56-0.61,1.36-1.1,2.39-1.46l3.13-1.08V286
		c0-1.49-0.74-2.23-2.23-2.23c-1.33,0-2.63,0.69-3.9,2.07v-2.68c0.95-1.12,2.32-1.68,4.1-1.68c1.33,0,2.41,0.35,3.21,1.05
		c0.27,0.22,0.51,0.52,0.73,0.89c0.21,0.37,0.35,0.74,0.41,1.12C116.77,284.92,116.8,285.62,116.8,286.66z M114.39,291.65v-3.67
		l-1.64,0.63c-0.83,0.33-1.42,0.67-1.77,1c-0.34,0.34-0.52,0.76-0.52,1.26c0,0.51,0.16,0.93,0.49,1.25
		c0.33,0.32,0.75,0.48,1.27,0.48C113.01,292.61,113.73,292.29,114.39,291.65z" />
		<path fill="#ffffff" d="M122.04,276.52c0.4,0,0.75,0.14,1.04,0.42c0.29,0.28,0.43,0.62,0.43,1.02c0,0.39-0.14,0.74-0.43,1.02
		c-0.29,0.29-0.63,0.43-1.04,0.43c-0.38,0-0.71-0.15-0.99-0.44c-0.29-0.29-0.43-0.63-0.43-1.02c0-0.38,0.14-0.71,0.43-1
		C121.33,276.67,121.67,276.52,122.04,276.52z M120.83,281.73h2.45v12.37h-2.45V281.73z" />
		<path fill="#ffffff" d="M126.1,300.4v-18.68h4.28c2.19,0,3.9,0.55,5.12,1.64c1.22,1.09,1.83,2.62,1.83,4.59
		c0,1.86-0.58,3.38-1.72,4.57c-1.15,1.19-2.62,1.79-4.4,1.79c-0.79,0-1.66-0.17-2.62-0.52v6.62H126.1z M130.34,284.01h-1.73v7.61
		c0.75,0.39,1.54,0.58,2.36,0.58c1.14,0,2.08-0.4,2.81-1.2c0.73-0.8,1.09-1.82,1.09-3.08c0-0.81-0.17-1.52-0.52-2.14
		c-0.34-0.62-0.81-1.07-1.41-1.35C132.35,284.15,131.48,284.01,130.34,284.01z" />
		<path fill="#ffffff" d="M147.81,286.66v5.26c0,0.42,0.14,0.63,0.43,0.63c0.3,0,0.76-0.22,1.39-0.66v1.49c-0.56,0.36-1,0.6-1.34,0.73
		c-0.34,0.13-0.69,0.19-1.06,0.19c-1.05,0-1.67-0.41-1.86-1.24c-1.04,0.81-2.15,1.21-3.32,1.21c-0.86,0-1.58-0.28-2.15-0.85
		c-0.57-0.57-0.86-1.28-0.86-2.14c0-0.78,0.28-1.48,0.84-2.09c0.56-0.61,1.36-1.1,2.39-1.46l3.13-1.08V286
		c0-1.49-0.75-2.23-2.23-2.23c-1.33,0-2.64,0.69-3.9,2.07v-2.68c0.95-1.12,2.32-1.68,4.1-1.68c1.34,0,2.41,0.35,3.21,1.05
		c0.27,0.22,0.51,0.52,0.73,0.89c0.21,0.37,0.35,0.74,0.41,1.12C147.78,284.92,147.81,285.62,147.81,286.66z M145.4,291.65v-3.67
		l-1.64,0.63c-0.83,0.33-1.42,0.67-1.77,1c-0.34,0.34-0.52,0.76-0.52,1.26c0,0.51,0.16,0.93,0.49,1.25
		c0.33,0.32,0.75,0.48,1.27,0.48C144.01,292.61,144.74,292.29,145.4,291.65z" />
		<path fill="#ffffff" d="M151.36,300.4v-18.68h4.28c2.19,0,3.9,0.55,5.12,1.64s1.83,2.62,1.83,4.59c0,1.86-0.57,3.38-1.73,4.57
		c-1.15,1.19-2.62,1.79-4.4,1.79c-0.79,0-1.66-0.17-2.62-0.52v6.62H151.36z M155.59,284.01h-1.73v7.61
		c0.75,0.39,1.54,0.58,2.36,0.58c1.15,0,2.08-0.4,2.81-1.2c0.73-0.8,1.09-1.82,1.09-3.08c0-0.81-0.17-1.52-0.52-2.14
		c-0.34-0.62-0.82-1.07-1.41-1.35C157.6,284.15,156.73,284.01,155.59,284.01z" />
		<path fill="#ffffff" d="M173.06,286.66v5.26c0,0.42,0.14,0.63,0.43,0.63c0.29,0,0.76-0.22,1.38-0.66v1.49c-0.55,0.36-1,0.6-1.34,0.73
		c-0.34,0.13-0.69,0.19-1.06,0.19c-1.05,0-1.67-0.41-1.85-1.24c-1.04,0.81-2.15,1.21-3.32,1.21c-0.86,0-1.58-0.28-2.15-0.85
		c-0.57-0.57-0.86-1.28-0.86-2.14c0-0.78,0.28-1.48,0.84-2.09c0.56-0.61,1.36-1.1,2.39-1.46l3.13-1.08V286
		c0-1.49-0.74-2.23-2.23-2.23c-1.34,0-2.63,0.69-3.9,2.07v-2.68c0.95-1.12,2.32-1.68,4.1-1.68c1.33,0,2.41,0.35,3.21,1.05
		c0.27,0.22,0.51,0.52,0.73,0.89c0.21,0.37,0.35,0.74,0.41,1.12C173.03,284.92,173.06,285.62,173.06,286.66z M170.65,291.65v-3.67
		l-1.64,0.63c-0.83,0.33-1.42,0.67-1.77,1c-0.35,0.34-0.52,0.76-0.52,1.26c0,0.51,0.16,0.93,0.49,1.25
		c0.33,0.32,0.75,0.48,1.27,0.48C169.26,292.61,169.99,292.29,170.65,291.65z" />
		<path fill="#ffffff" d="M180.53,275.29h15.69v2.39h-6.55v16.42h-2.7v-16.42h-6.44V275.29z" />
		<path fill="#ffffff" d="M202.76,286.66v5.26c0,0.42,0.14,0.63,0.43,0.63c0.3,0,0.76-0.22,1.38-0.66v1.49c-0.55,0.36-1,0.6-1.34,0.73
		c-0.34,0.13-0.69,0.19-1.06,0.19c-1.05,0-1.67-0.41-1.86-1.24c-1.04,0.81-2.15,1.21-3.32,1.21c-0.86,0-1.58-0.28-2.15-0.85
		c-0.57-0.57-0.86-1.28-0.86-2.14c0-0.78,0.28-1.48,0.84-2.09c0.56-0.61,1.35-1.1,2.39-1.46l3.13-1.08V286
		c0-1.49-0.74-2.23-2.23-2.23c-1.34,0-2.64,0.69-3.9,2.07v-2.68c0.95-1.12,2.32-1.68,4.1-1.68c1.34,0,2.41,0.35,3.21,1.05
		c0.27,0.22,0.51,0.52,0.73,0.89c0.21,0.37,0.35,0.74,0.41,1.12C202.73,284.92,202.76,285.62,202.76,286.66z M200.35,291.65v-3.67
		l-1.64,0.63c-0.83,0.33-1.42,0.67-1.77,1c-0.35,0.34-0.52,0.76-0.52,1.26c0,0.51,0.16,0.93,0.49,1.25
		c0.33,0.32,0.75,0.48,1.27,0.48C198.97,292.61,199.69,292.29,200.35,291.65z" />
		<path fill="#ffffff" d="M214.62,294.1v-1.59c-0.52,0.57-1.11,1.01-1.78,1.33c-0.67,0.32-1.33,0.47-2,0.47c-0.78,0-1.5-0.19-2.16-0.58
		c-0.66-0.39-1.16-0.92-1.49-1.59c-0.34-0.67-0.5-1.78-0.5-3.33v-7.09h2.45v7.05c0,1.3,0.18,2.2,0.56,2.72
		c0.37,0.51,1.02,0.77,1.96,0.77c1.17,0,2.16-0.57,2.97-1.71v-8.83h2.45v12.37H214.62z" />
		<path fill="#ffffff" d="M230.09,285.12v8.98h-2.46v-6.88c0-1.37-0.18-2.33-0.55-2.87s-1.01-0.81-1.92-0.81
		c-0.51,0-0.98,0.12-1.41,0.35c-0.42,0.23-0.91,0.65-1.46,1.24v8.98h-2.45v-12.37h2.45v1.63c1.25-1.25,2.47-1.87,3.66-1.87
		c1.57,0,2.78,0.74,3.64,2.23c1.31-1.51,2.68-2.26,4.1-2.26c1.2,0,2.19,0.44,2.96,1.32c0.78,0.88,1.16,2.22,1.16,4.02v7.3h-2.45
		v-7.33c0-1.03-0.21-1.82-0.63-2.37c-0.42-0.55-1.03-0.82-1.81-0.82C231.92,283.58,230.97,284.09,230.09,285.12z" />
		<path fill="#ffffff" d="M248.96,286.66v5.26c0,0.42,0.14,0.63,0.43,0.63c0.29,0,0.76-0.22,1.38-0.66v1.49c-0.55,0.36-1,0.6-1.34,0.73
		c-0.34,0.13-0.69,0.19-1.06,0.19c-1.05,0-1.67-0.41-1.85-1.24c-1.04,0.81-2.15,1.21-3.32,1.21c-0.86,0-1.58-0.28-2.15-0.85
		c-0.57-0.57-0.86-1.28-0.86-2.14c0-0.78,0.28-1.48,0.84-2.09c0.56-0.61,1.36-1.1,2.39-1.46l3.13-1.08V286
		c0-1.49-0.74-2.23-2.23-2.23c-1.34,0-2.63,0.69-3.9,2.07v-2.68c0.95-1.12,2.32-1.68,4.1-1.68c1.33,0,2.41,0.35,3.21,1.05
		c0.27,0.22,0.51,0.52,0.73,0.89c0.21,0.37,0.35,0.74,0.41,1.12C248.93,284.92,248.96,285.62,248.96,286.66z M246.55,291.65v-3.67
		l-1.64,0.63c-0.83,0.33-1.42,0.67-1.77,1c-0.35,0.34-0.52,0.76-0.52,1.26c0,0.51,0.16,0.93,0.49,1.25
		c0.33,0.32,0.75,0.48,1.27,0.48C245.16,292.61,245.89,292.29,246.55,291.65z" />
		<path fill="#ffffff" d="M250.65,283.69l4.6-4.52v2.55h3.91v2.2h-3.91v6.05c0,1.41,0.59,2.12,1.76,2.12c0.88,0,1.81-0.29,2.78-0.87
		v2.29c-0.94,0.53-1.97,0.79-3.08,0.79c-1.12,0-2.05-0.33-2.8-0.98c-0.23-0.2-0.43-0.42-0.58-0.67c-0.15-0.25-0.28-0.57-0.38-0.97
		c-0.1-0.4-0.15-1.16-0.15-2.28v-5.49h-2.15V283.69z" />
		<path fill="#ffffff" d="M269.88,286.66v5.26c0,0.42,0.14,0.63,0.43,0.63c0.3,0,0.76-0.22,1.38-0.66v1.49c-0.55,0.36-1,0.6-1.34,0.73
		c-0.34,0.13-0.69,0.19-1.06,0.19c-1.05,0-1.67-0.41-1.86-1.24c-1.04,0.81-2.15,1.21-3.32,1.21c-0.86,0-1.58-0.28-2.15-0.85
		s-0.86-1.28-0.86-2.14c0-0.78,0.28-1.48,0.84-2.09c0.56-0.61,1.35-1.1,2.39-1.46l3.13-1.08V286c0-1.49-0.74-2.23-2.23-2.23
		c-1.34,0-2.64,0.69-3.9,2.07v-2.68c0.95-1.12,2.32-1.68,4.1-1.68c1.34,0,2.41,0.35,3.21,1.05c0.27,0.22,0.51,0.52,0.73,0.89
		c0.21,0.37,0.35,0.74,0.41,1.12C269.85,284.92,269.88,285.62,269.88,286.66z M267.47,291.65v-3.67l-1.64,0.63
		c-0.83,0.33-1.42,0.67-1.77,1c-0.35,0.34-0.52,0.76-0.52,1.26c0,0.51,0.16,0.93,0.49,1.25c0.33,0.32,0.75,0.48,1.27,0.48
		C266.09,292.61,266.81,292.29,267.47,291.65z" />
		<path fill="#ffffff" d="M282.47,294.1v-18.78h4.71c1.9,0,3.41,0.47,4.52,1.41c1.12,0.94,1.67,2.21,1.67,3.82
		c0,1.09-0.27,2.04-0.82,2.84c-0.55,0.8-1.33,1.39-2.35,1.79c0.6,0.39,1.19,0.93,1.76,1.61c0.57,0.68,1.38,1.87,2.42,3.56
		c0.65,1.07,1.18,1.87,1.57,2.41l0.99,1.34h-3.2l-0.82-1.24c-0.03-0.05-0.08-0.12-0.16-0.23l-0.52-0.74l-0.83-1.37l-0.9-1.47
		c-0.56-0.77-1.06-1.39-1.53-1.84c-0.46-0.46-0.88-0.79-1.25-0.99c-0.37-0.2-1-0.3-1.88-0.3h-0.7v8.17H282.47z M285.97,277.6h-0.81
		v5.93h1.02c1.36,0,2.3-0.12,2.81-0.35c0.51-0.23,0.9-0.58,1.18-1.06c0.28-0.47,0.42-1.01,0.42-1.61c0-0.59-0.16-1.13-0.47-1.61
		c-0.31-0.48-0.75-0.82-1.32-1.01C288.23,277.7,287.29,277.6,285.97,277.6z" />
		<path fill="#ffffff" d="M306.46,286.66v5.26c0,0.42,0.14,0.63,0.43,0.63c0.29,0,0.76-0.22,1.38-0.66v1.49c-0.56,0.36-1,0.6-1.34,0.73
		c-0.34,0.13-0.69,0.19-1.06,0.19c-1.05,0-1.67-0.41-1.86-1.24c-1.04,0.81-2.15,1.21-3.32,1.21c-0.86,0-1.58-0.28-2.15-0.85
		c-0.57-0.57-0.86-1.28-0.86-2.14c0-0.78,0.28-1.48,0.84-2.09c0.56-0.61,1.36-1.1,2.39-1.46l3.13-1.08V286
		c0-1.49-0.74-2.23-2.23-2.23c-1.33,0-2.63,0.69-3.9,2.07v-2.68c0.95-1.12,2.32-1.68,4.1-1.68c1.33,0,2.41,0.35,3.21,1.05
		c0.27,0.22,0.51,0.52,0.73,0.89c0.21,0.37,0.35,0.74,0.41,1.12C306.43,284.92,306.46,285.62,306.46,286.66z M304.05,291.65v-3.67
		l-1.64,0.63c-0.83,0.33-1.42,0.67-1.77,1c-0.34,0.34-0.52,0.76-0.52,1.26c0,0.51,0.16,0.93,0.49,1.25
		c0.33,0.32,0.75,0.48,1.27,0.48C302.67,292.61,303.39,292.29,304.05,291.65z" />
		<path fill="#ffffff" d="M318.32,294.1v-1.59c-0.52,0.57-1.11,1.01-1.78,1.33c-0.67,0.32-1.33,0.47-2,0.47c-0.78,0-1.5-0.19-2.16-0.58
		c-0.66-0.39-1.16-0.92-1.49-1.59c-0.34-0.67-0.51-1.78-0.51-3.33v-7.09h2.45v7.05c0,1.3,0.19,2.2,0.56,2.72
		c0.37,0.51,1.02,0.77,1.96,0.77c1.17,0,2.16-0.57,2.97-1.71v-8.83h2.45v12.37H318.32z" />
	</g>
	<g>
		<polygon fill="#ffffff" points="91.17,321.9 83.6,313 81.44,313 81.44,325.75 83.85,325.75 83.85,316.71 91.47,325.75 93.58,325.75 
		93.58,313 91.17,313 	" />
		<polygon fill="#ffffff" points="108.94,320.2 114.47,320.2 114.47,318.28 108.94,318.28 108.94,314.93 114.72,314.93 114.72,313 
		106.48,313 106.48,325.75 114.85,325.75 114.85,323.82 108.94,323.82 	" />
		<polygon fill="#ffffff" points="140.41,320.89 137.05,313 134.97,313 131.63,320.87 128.46,313 125.91,313 131.17,325.91 
		131.97,325.91 136,316.46 140.02,325.91 140.85,325.91 146.1,313 143.58,313 	" />
		<polygon fill="#ffffff" points="183.44,313 172.22,313 172.22,314.93 179.2,314.93 171.78,325.75 183.48,325.75 183.48,323.82 
		176.01,323.82 	" />
		<polygon fill="#ffffff" points="197.9,320.2 203.44,320.2 203.44,318.28 197.9,318.28 197.9,314.93 203.68,314.93 203.68,313 
		195.44,313 195.44,325.75 203.81,325.75 203.81,323.82 197.9,323.82 	" />
		<path fill="#ffffff" d="M220.14,313l-5.26,12.75h2.58l1.23-3.1h5.67l1.32,3.1h2.6L222.66,313H220.14z M219.45,320.78l1.96-5.05
		l2.15,5.05H219.45z" />
		<polygon fill="#ffffff" points="242.35,313 239.88,313 239.88,325.75 248.54,325.75 248.54,323.82 242.35,323.82 	" />
		<path fill="#ffffff" d="M264.26,313L259,325.75h2.58l1.23-3.1h5.67l1.32,3.1h2.6L266.78,313H264.26z M263.57,320.78l1.96-5.05
		l2.15,5.05H263.57z" />
		<polygon fill="#ffffff" points="293.74,321.9 286.16,313 284,313 284,325.75 286.41,325.75 286.41,316.71 294.03,325.75 
		296.15,325.75 296.15,313 293.74,313 	" />
		<path fill="#ffffff" d="M317.92,313.81c-1.03-0.54-2.21-0.81-3.54-0.81h-5.34v12.75h5.19c1.37,0,2.58-0.26,3.64-0.79
		c1.06-0.53,1.88-1.28,2.45-2.24c0.58-0.96,0.86-2.07,0.86-3.32c0-1.22-0.29-2.32-0.86-3.3
		C319.76,315.11,318.96,314.35,317.92,313.81z M317.41,322.6c-0.82,0.82-1.92,1.23-3.28,1.23h-2.62v-8.9h2.54
		c1.4,0,2.52,0.4,3.35,1.2c0.83,0.8,1.25,1.88,1.25,3.26C318.64,320.71,318.23,321.78,317.41,322.6z" />
	</g>
</svg>